<svg xmlns="http://www.w3.org/2000/svg" width="24" height="24" viewBox="0 0 24 24">
  <path id="github" d="M13,1A12.153,12.153,0,0,0,1,13.3,12.273,12.273,0,0,0,9.2,24.979c.6.114.818-.263.818-.594V22.3c-3.338.742-4.047-1.644-4.047-1.644a3.25,3.25,0,0,0-1.331-1.8c-1.091-.754.087-.742.087-.742a2.517,2.517,0,0,1,1.833,1.267,2.524,2.524,0,0,0,3.491,1.016,2.711,2.711,0,0,1,.764-1.644c-2.662-.308-5.455-1.359-5.455-6.075A4.866,4.866,0,0,1,6.575,9.347,4.5,4.5,0,0,1,6.695,6.1S7.709,5.773,9.967,7.36a11.149,11.149,0,0,1,6,0C18.258,5.773,19.24,6.1,19.24,6.1a4.5,4.5,0,0,1,.12,3.243,4.857,4.857,0,0,1,1.276,3.3c0,4.727-2.815,5.766-5.455,6.075A2.93,2.93,0,0,1,16,21v3.368s.218.719.818.594A12.285,12.285,0,0,0,25,13.3,12.153,12.153,0,0,0,13,1" transform="translate(-1 -1)" fill="#fff"/>
</svg>
