<svg xmlns="http://www.w3.org/2000/svg" width="24" height="24" viewBox="0 0 24 24">
  <path id="web_dark" d="M12.016,0a12,12,0,1,0,12,12,12.013,12.013,0,0,0-12-12ZM1.463,12.706H5.609a16.608,16.608,0,0,0,.724,4.235H2.659a10.484,10.484,0,0,1-1.2-4.235Zm4.146-1.412H1.463a10.484,10.484,0,0,1,1.2-4.235H6.329A16.6,16.6,0,0,0,5.609,11.294ZM7.824,7.059h8.324a15.218,15.218,0,0,1,.8,4.235H7.021A15.167,15.167,0,0,1,7.824,7.059Zm-.8,5.647h9.932a15.274,15.274,0,0,1-.808,4.235H7.829A15.223,15.223,0,0,1,7.021,12.706Zm11.344,0h4.2a10.484,10.484,0,0,1-1.2,4.235H17.64a16.608,16.608,0,0,0,.724-4.235Zm0-1.412a16.6,16.6,0,0,0-.72-4.235h3.728a10.528,10.528,0,0,1,1.2,4.235Zm2.1-5.647H17.144a17.209,17.209,0,0,0-2.188-3.812A10.615,10.615,0,0,1,20.467,5.647ZM12.8,1.451a15.99,15.99,0,0,1,2.784,4.2h-7.2a15.953,15.953,0,0,1,2.781-4.193c.281-.021.562-.042.85-.042C12.281,1.412,12.543,1.433,12.8,1.451Zm-3.8.4A17.172,17.172,0,0,0,6.831,5.647H3.564A10.613,10.613,0,0,1,9,1.854Zm-5.441,16.5H6.835a17.144,17.144,0,0,0,2.184,3.8,10.6,10.6,0,0,1-5.455-3.8Zm7.619,4.193a16.031,16.031,0,0,1-2.792-4.193h7.192a15.992,15.992,0,0,1-2.794,4.2c-.256.018-.512.04-.772.04C11.734,22.588,11.458,22.567,11.183,22.546Zm3.757-.377a17.19,17.19,0,0,0,2.2-3.816h3.329A10.613,10.613,0,0,1,14.94,22.169Z" transform="translate(-0.016)" fill="#292d35"/>
</svg>
