<svg xmlns="http://www.w3.org/2000/svg" width="244.4" height="26" viewBox="0 0 244.4 26">
  <g id="coffeeroasters" transform="translate(-1 -1)">
    <path id="Path_1694" data-name="Path 1694" d="M40.526,25.908a8.084,8.084,0,0,0,3.559-.738,6.165,6.165,0,0,0,2.424-2.028,5.936,5.936,0,0,0,1.034-2.974.688.688,0,0,0-.094-.456.389.389,0,0,0-.279-.163.648.648,0,0,0-.281.069,1.792,1.792,0,0,0-.4.309,2.645,2.645,0,0,1-1.305,1.247,5.265,5.265,0,0,1-2.1.369,3.961,3.961,0,0,1-2.238-.653A4.357,4.357,0,0,1,39.3,18.93a8.119,8.119,0,0,1-.568-3.232,8.808,8.808,0,0,1,.245-2.252,3.042,3.042,0,0,1,.7-1.367,1.382,1.382,0,0,1,1.009-.456,1,1,0,0,1,.863.43,2.191,2.191,0,0,1,.306,1.272v1.1a3.15,3.15,0,0,0,.721,2.192,2.7,2.7,0,0,0,2.11.8,2.713,2.713,0,0,0,2.932-2.939,3.971,3.971,0,0,0-.754-2.364,5.071,5.071,0,0,0-2.186-1.676,8.885,8.885,0,0,0-3.517-.619,8.183,8.183,0,0,0-4.272,1.092,7.675,7.675,0,0,0-2.856,2.974A8.787,8.787,0,0,0,33,18.155a8.374,8.374,0,0,0,.983,4.2A6.656,6.656,0,0,0,36.67,25a8.048,8.048,0,0,0,3.856.911Zm16.357-.034a9.053,9.053,0,0,0,4.432-1.048,7.657,7.657,0,0,0,4.059-6.911A8.379,8.379,0,0,0,64.341,13.7a7.391,7.391,0,0,0-2.881-2.853,8.729,8.729,0,0,0-4.323-1.032,8.91,8.91,0,0,0-4.406,1.066,7.888,7.888,0,0,0-3,2.88,7.788,7.788,0,0,0-1.085,4.082,8.254,8.254,0,0,0,1.034,4.178,7.35,7.35,0,0,0,2.89,2.828,8.79,8.79,0,0,0,4.314,1.022Zm1.289-1.788a1.087,1.087,0,0,1-1.026-.464,5.743,5.743,0,0,1-.948-1.908,26.98,26.98,0,0,1-.856-3.524A26.627,26.627,0,0,1,54.9,14.6a6.115,6.115,0,0,1,.2-2.132,1.151,1.151,0,0,1,.78-.842,1.09,1.09,0,0,1,1.025.465A5.829,5.829,0,0,1,57.866,14a26,26,0,0,1,.864,3.524,24.362,24.362,0,0,1,.449,3.6,6.066,6.066,0,0,1-.22,2.14,1.116,1.116,0,0,1-.787.825Zm18.492,1.479a.7.7,0,0,0,.8-.79.762.762,0,0,0-.186-.542.934.934,0,0,0-.576-.25l-1.458-.224a.613.613,0,0,1-.466-.309,1.545,1.545,0,0,1-.144-.739V12h1.2a2.346,2.346,0,0,0,1.389-.328,1,1,0,0,0,.441-.842.6.6,0,0,0-.212-.506.964.964,0,0,0-.6-.163H74.34l-.016-.09a2.078,2.078,0,0,0-.275-.666l-.073-.112a8.617,8.617,0,0,0-.941-1.134q-.572-.59-1.118-1.2a6.787,6.787,0,0,1-.941-1.349,3.263,3.263,0,0,1-.382-1.548,2.041,2.041,0,0,1,.322-1.238,1.113,1.113,0,0,1,.95-.43.89.89,0,0,1,.728.284,1.354,1.354,0,0,1,.238.884V5.091a2.93,2.93,0,0,0,.746,2.1,2.575,2.575,0,0,0,1.966.79A2.49,2.49,0,0,0,77.35,7.3a2.708,2.708,0,0,0,.7-2.037,4,4,0,0,0-.593-2.123,4.169,4.169,0,0,0-1.789-1.556A6.822,6.822,0,0,0,72.665,1a6.341,6.341,0,0,0-4.34,1.35A4.571,4.571,0,0,0,66.8,5.95a4.362,4.362,0,0,0,.254,1.591,5.48,5.48,0,0,0,.576,1.108l.576.834a1.4,1.4,0,0,1,.239.578l.01.1H66.968a.863.863,0,0,0-.528.151l-.056.047a.662.662,0,0,0-.211.508.825.825,0,0,0,.168.524,1.6,1.6,0,0,0,.56.4l.984.327a1.038,1.038,0,0,1,.44.3.669.669,0,0,1,.12.4v9.936a1.289,1.289,0,0,1-.153.686.759.759,0,0,1-.424.328L67.139,24a1.017,1.017,0,0,0-.449.309.8.8,0,0,0-.145.5.727.727,0,0,0,.212.558.778.778,0,0,0,.551.2Zm11.832,0a.7.7,0,0,0,.8-.79.758.758,0,0,0-.187-.542.931.931,0,0,0-.576-.25l-1.457-.224a.613.613,0,0,1-.466-.309,1.532,1.532,0,0,1-.145-.739V12h1.2a2.349,2.349,0,0,0,1.39-.328,1,1,0,0,0,.44-.842.6.6,0,0,0-.211-.506.967.967,0,0,0-.6-.163H86.172l-.016-.09a2.078,2.078,0,0,0-.275-.666l-.073-.112a8.617,8.617,0,0,0-.94-1.134q-.572-.59-1.119-1.2a6.787,6.787,0,0,1-.94-1.349,3.264,3.264,0,0,1-.382-1.548,2.034,2.034,0,0,1,.322-1.238,1.111,1.111,0,0,1,.948-.43.892.892,0,0,1,.729.284,1.361,1.361,0,0,1,.237.884V5.091a2.93,2.93,0,0,0,.747,2.1,2.575,2.575,0,0,0,1.966.79A2.493,2.493,0,0,0,89.183,7.3a2.711,2.711,0,0,0,.7-2.037,4,4,0,0,0-.593-2.123A4.169,4.169,0,0,0,87.5,1.584,6.827,6.827,0,0,0,84.5,1a6.34,6.34,0,0,0-4.339,1.35,4.569,4.569,0,0,0-1.526,3.6,4.361,4.361,0,0,0,.255,1.591,5.428,5.428,0,0,0,.576,1.108l.576.834a1.411,1.411,0,0,1,.238.578l.011.1H78.8a.863.863,0,0,0-.529.151l-.055.047a.663.663,0,0,0-.212.508.819.819,0,0,0,.17.524,1.6,1.6,0,0,0,.56.4l.983.327a1.036,1.036,0,0,1,.441.3.669.669,0,0,1,.119.4v9.936a1.279,1.279,0,0,1-.153.686.759.759,0,0,1-.423.328L78.97,24a1.017,1.017,0,0,0-.449.309.8.8,0,0,0-.144.5.726.726,0,0,0,.211.558.78.78,0,0,0,.551.2H88.5Zm9.474.343a8.219,8.219,0,0,0,3.8-.842,6.523,6.523,0,0,0,2.558-2.243,5.515,5.515,0,0,0,.916-3.085.713.713,0,0,0-.119-.465.367.367,0,0,0-.288-.137.666.666,0,0,0-.281.077,1.3,1.3,0,0,0-.364.3,3.041,3.041,0,0,1-1.4,1.719,4.614,4.614,0,0,1-2.4.619,4.281,4.281,0,0,1-3.39-1.453,4.982,4.982,0,0,1-1.054-2.267l-.017-.079h7.748a1.632,1.632,0,0,0,1.154-.389l.067-.067a1.758,1.758,0,0,0,.423-1.247,6.506,6.506,0,0,0-.856-3.308,6.139,6.139,0,0,0-2.449-2.356,7.827,7.827,0,0,0-3.8-.868,8.97,8.97,0,0,0-4.442,1.032,6.951,6.951,0,0,0-2.823,2.88,9.1,9.1,0,0,0-.974,4.306A8.2,8.2,0,0,0,91,22.153a7.094,7.094,0,0,0,2.8,2.767,8.511,8.511,0,0,0,4.17.988Zm-2.212-9.233q-.025-.411-.025-.823a10.673,10.673,0,0,1,.238-2.544,2.976,2.976,0,0,1,.609-1.316,1.135,1.135,0,0,1,.831-.387q.593,0,1.111,1.015a7.98,7.98,0,0,1,.517,3.37q0,.721-.645.721H95.761Zm18.418,9.233a8.21,8.21,0,0,0,3.8-.842,6.527,6.527,0,0,0,2.559-2.243,5.522,5.522,0,0,0,.915-3.085.714.714,0,0,0-.119-.465.367.367,0,0,0-.288-.137.666.666,0,0,0-.28.077,1.286,1.286,0,0,0-.364.3,3.039,3.039,0,0,1-1.4,1.719,4.614,4.614,0,0,1-2.4.619,4.283,4.283,0,0,1-3.39-1.453,5,5,0,0,1-1.054-2.267l-.017-.079h7.749a1.63,1.63,0,0,0,1.153-.389l.068-.067a1.762,1.762,0,0,0,.423-1.247,6.506,6.506,0,0,0-.856-3.308,6.153,6.153,0,0,0-2.449-2.356,7.834,7.834,0,0,0-3.8-.868,8.966,8.966,0,0,0-4.441,1.032,6.951,6.951,0,0,0-2.823,2.88,9.092,9.092,0,0,0-.974,4.306,8.2,8.2,0,0,0,1.009,4.117,7.094,7.094,0,0,0,2.8,2.767,8.508,8.508,0,0,0,4.17.988Zm-2.214-9.233q-.025-.411-.024-.823a10.736,10.736,0,0,1,.237-2.544,2.976,2.976,0,0,1,.61-1.316,1.131,1.131,0,0,1,.83-.387q.593,0,1.111,1.015a7.963,7.963,0,0,1,.517,3.37q0,.721-.645.721h-2.634l0-.036Zm19.842,8.89a.831.831,0,0,0,.619-.215.761.761,0,0,0,.212-.558.853.853,0,0,0-.153-.508.715.715,0,0,0-.509-.266l-1.271-.258a.673.673,0,0,1-.475-.353,1.617,1.617,0,0,1-.152-.764V16.592a9.635,9.635,0,0,1,.119-1.668,2.427,2.427,0,0,1,.347-.97.653.653,0,0,1,.534-.318.475.475,0,0,1,.441.224,1.3,1.3,0,0,1,.153.619l.017.686a2.641,2.641,0,0,0,.635,1.805,2.443,2.443,0,0,0,1.856.636,2.662,2.662,0,0,0,2.1-.929,4.329,4.329,0,0,0,.814-2.9,4.73,4.73,0,0,0-.78-2.974,2.692,2.692,0,0,0-2.237-.98,3.666,3.666,0,0,0-2.22.749,5.107,5.107,0,0,0-1.636,2.286q-.106.264-.189.536l-.029.1-.129-2.671a1.877,1.877,0,0,0-.164-.69l-.031-.05a.491.491,0,0,0-.432-.206,2.185,2.185,0,0,0-.492.069,5.148,5.148,0,0,0-.711.24l-4.815,1.394a1.3,1.3,0,0,0-.575.369.77.77,0,0,0-.17.489.666.666,0,0,0,.11.4,1.07,1.07,0,0,0,.347.293l.441.052a.643.643,0,0,1,.313.283,1.374,1.374,0,0,1,.094.593V22.78a2.256,2.256,0,0,1-.085.738.574.574,0,0,1-.3.328l-.39.155a1.392,1.392,0,0,0-.347.335.773.773,0,0,0-.127.456.757.757,0,0,0,.211.567.8.8,0,0,0,.586.207h8.475Zm14.171.309a9.053,9.053,0,0,0,4.432-1.048,7.662,7.662,0,0,0,4.059-6.911,8.389,8.389,0,0,0-1.034-4.212,7.391,7.391,0,0,0-2.881-2.853,8.729,8.729,0,0,0-4.323-1.032,8.917,8.917,0,0,0-4.408,1.066,7.892,7.892,0,0,0-3,2.88,7.788,7.788,0,0,0-1.085,4.082,8.243,8.243,0,0,0,1.034,4.178,7.35,7.35,0,0,0,2.89,2.828,8.79,8.79,0,0,0,4.314,1.022Zm1.288-1.788a1.087,1.087,0,0,1-1.025-.464,5.743,5.743,0,0,1-.948-1.908,27.128,27.128,0,0,1-.857-3.524,26.769,26.769,0,0,1-.44-3.593,6.114,6.114,0,0,1,.2-2.132,1.151,1.151,0,0,1,.78-.842,1.09,1.09,0,0,1,1.025.465A5.829,5.829,0,0,1,146.959,14a26.159,26.159,0,0,1,.864,3.524,24.363,24.363,0,0,1,.449,3.6,6.066,6.066,0,0,1-.22,2.14A1.116,1.116,0,0,1,147.264,24.086Zm20.646,1.822a4.667,4.667,0,0,0,2.34-.524,3.755,3.755,0,0,0,1.363-1.246,2.554,2.554,0,0,0,.449-1.324.781.781,0,0,0-.11-.43.337.337,0,0,0-.3-.172.333.333,0,0,0-.153.034.338.338,0,0,0-.119.1.724.724,0,0,1-.262.43.669.669,0,0,1-.382.121.5.5,0,0,1-.433-.2.874.874,0,0,1-.144-.524v-7.6a4.273,4.273,0,0,0-1.534-3.515,7.567,7.567,0,0,0-4.8-1.247,12.24,12.24,0,0,0-4.247.636,6.152,6.152,0,0,0-2.558,1.624,3.071,3.071,0,0,0-.857,2.02,2.151,2.151,0,0,0,.635,1.676,2.652,2.652,0,0,0,1.84.575,3.25,3.25,0,0,0,2.322-.8,2.722,2.722,0,0,0,.848-2.072V12.174a.957.957,0,0,1,.3-.749,1.064,1.064,0,0,1,.737-.265.914.914,0,0,1,.754.352,1.491,1.491,0,0,1,.281.955v5.011l-.09-.02a5.673,5.673,0,0,0-.946-.09h-.183a9.609,9.609,0,0,0-5.433,1.238,3.967,3.967,0,0,0-1.789,3.455,3.523,3.523,0,0,0,1.229,2.767,4.757,4.757,0,0,0,3.262,1.083,6.55,6.55,0,0,0,2.849-.627,4.56,4.56,0,0,0,1.612-1.236l.023-.031.025.078a2.309,2.309,0,0,0,.716,1l.107.087a4.242,4.242,0,0,0,2.653.73Zm-4.746-2.681a1.3,1.3,0,0,1-1.094-.558,2.871,2.871,0,0,1-.416-1.711,3.4,3.4,0,0,1,.4-1.822,1.21,1.21,0,0,1,1.06-.619,2.664,2.664,0,0,1,.678.077l.083.026v4.412l-.054.031a1.425,1.425,0,0,1-.56.161Zm16.7,2.733a6.873,6.873,0,0,0,4.628-1.393,4.761,4.761,0,0,0,1.61-3.8,5.726,5.726,0,0,0-.543-2.562,4.974,4.974,0,0,0-1.9-1.951,16.507,16.507,0,0,0-3.815-1.607,6.873,6.873,0,0,1-1.414-.593,1.81,1.81,0,0,1-.686-.645,1.519,1.519,0,0,1-.187-.738,1.181,1.181,0,0,1,.424-.946,1.89,1.89,0,0,1,1.254-.361,3.553,3.553,0,0,1,2.178.774,10.813,10.813,0,0,1,2.263,2.647,2.319,2.319,0,0,0,.645.576.828.828,0,0,0,.609.111.6.6,0,0,0,.441-.472,2.867,2.867,0,0,0-.034-1.058l-.441-3.163a1.33,1.33,0,0,0-.254-.705.631.631,0,0,0-.492-.206,1.683,1.683,0,0,0-.678.189c-.27.126-.54.255-.8.387a1.548,1.548,0,0,1-.6.2,1.275,1.275,0,0,1-.551-.207,5.456,5.456,0,0,0-1.025-.412,5.853,5.853,0,0,0-1.712-.207,7.509,7.509,0,0,0-3.145.636,5.223,5.223,0,0,0-2.2,1.814,4.857,4.857,0,0,0-.8,2.81,5.115,5.115,0,0,0,.6,2.527,5.173,5.173,0,0,0,1.839,1.856,11.057,11.057,0,0,0,3.12,1.255,9.827,9.827,0,0,1,1.872.661,2.229,2.229,0,0,1,.9.731,1.62,1.62,0,0,1,.245.876,1.405,1.405,0,0,1-.423,1.049,1.786,1.786,0,0,1-1.289.412,3.554,3.554,0,0,1-1.551-.352,5.1,5.1,0,0,1-1.517-1.213,18.424,18.424,0,0,1-1.746-2.355,1.59,1.59,0,0,0-.652-.551.874.874,0,0,0-.738.018.758.758,0,0,0-.458.584,2.506,2.506,0,0,0,.052,1.1L173.4,25.1a1.2,1.2,0,0,0,.339.686.757.757,0,0,0,.474.173,1.759,1.759,0,0,0,.7-.189l.83-.378a1.28,1.28,0,0,1,1.34,0,7.811,7.811,0,0,0,1.085.378,6.34,6.34,0,0,0,1.687.189Zm13.424-.052a5.573,5.573,0,0,0,2.645-.593,4.541,4.541,0,0,0,1.771-1.65,5.475,5.475,0,0,0,.772-2.449.733.733,0,0,0-.11-.524.252.252,0,0,0-.3-.06c-.135.206-.277.413-.423.619a4.54,4.54,0,0,1-.466.558,2.1,2.1,0,0,1-.551.4,1.566,1.566,0,0,1-1.924-.465,3.363,3.363,0,0,1-.432-1.907V12h2.542a2.285,2.285,0,0,0,1.294-.3l.062-.047a1.031,1.031,0,0,0,.424-.825.612.612,0,0,0-.2-.508.9.9,0,0,0-.576-.163h-3.543V7.084a1.179,1.179,0,0,0-.174-.7l-.046-.057a.788.788,0,0,0-.61-.24,1.258,1.258,0,0,0-.678.214,2.943,2.943,0,0,0-.678.627L188.946,9.56a2.74,2.74,0,0,1-.458.48.563.563,0,0,1-.322.121h-.831a.9.9,0,0,0-.627.232.767.767,0,0,0-.254.593,1.247,1.247,0,0,0,.084.49.712.712,0,0,0,.373.336l.8.258a.575.575,0,0,1,.339.309,1.732,1.732,0,0,1,.068.551V20.7a5.3,5.3,0,0,0,1.3,3.954,5.368,5.368,0,0,0,3.873,1.254Zm13.747,0a8.214,8.214,0,0,0,3.8-.842,6.537,6.537,0,0,0,2.56-2.243,5.53,5.53,0,0,0,.915-3.085.713.713,0,0,0-.119-.465.367.367,0,0,0-.289-.137.666.666,0,0,0-.279.077,1.273,1.273,0,0,0-.364.3,3.049,3.049,0,0,1-1.4,1.719,4.614,4.614,0,0,1-2.4.619,4.283,4.283,0,0,1-3.39-1.453,5,5,0,0,1-1.054-2.267L205,18.053h7.749a1.628,1.628,0,0,0,1.153-.389l.068-.067a1.762,1.762,0,0,0,.423-1.247,6.506,6.506,0,0,0-.856-3.308,6.153,6.153,0,0,0-2.449-2.356,7.832,7.832,0,0,0-3.8-.868,8.969,8.969,0,0,0-4.441,1.032,6.951,6.951,0,0,0-2.823,2.88,9.092,9.092,0,0,0-.975,4.306,8.2,8.2,0,0,0,1.009,4.117,7.094,7.094,0,0,0,2.8,2.767,8.508,8.508,0,0,0,4.17.988Zm-2.213-9.233q-.025-.411-.024-.823a10.737,10.737,0,0,1,.237-2.544,2.975,2.975,0,0,1,.61-1.316,1.134,1.134,0,0,1,.831-.387q.593,0,1.11,1.015a7.947,7.947,0,0,1,.517,3.37q0,.721-.644.721H204.82Zm19.843,8.89a.83.83,0,0,0,.618-.215.761.761,0,0,0,.212-.558.853.853,0,0,0-.153-.508.715.715,0,0,0-.509-.266l-1.271-.258a.673.673,0,0,1-.475-.353,1.629,1.629,0,0,1-.152-.764V16.592a9.634,9.634,0,0,1,.119-1.668,2.427,2.427,0,0,1,.347-.97.655.655,0,0,1,.534-.318.474.474,0,0,1,.441.224,1.3,1.3,0,0,1,.153.619l.017.686a2.641,2.641,0,0,0,.635,1.805,2.443,2.443,0,0,0,1.856.636,2.665,2.665,0,0,0,2.1-.929,4.329,4.329,0,0,0,.813-2.9,4.73,4.73,0,0,0-.78-2.974,2.69,2.69,0,0,0-2.236-.98,3.667,3.667,0,0,0-2.221.749,5.107,5.107,0,0,0-1.636,2.286q-.106.264-.189.536l-.029.1-.129-2.672a1.856,1.856,0,0,0-.164-.69l-.031-.05a.491.491,0,0,0-.432-.206,2.185,2.185,0,0,0-.492.069,5.149,5.149,0,0,0-.711.24l-4.814,1.394a1.3,1.3,0,0,0-.576.369.77.77,0,0,0-.17.489.666.666,0,0,0,.11.4,1.07,1.07,0,0,0,.347.293l.441.052a.643.643,0,0,1,.313.283,1.375,1.375,0,0,1,.094.593V22.78a2.256,2.256,0,0,1-.085.738.574.574,0,0,1-.3.328l-.39.155a1.392,1.392,0,0,0-.347.335.773.773,0,0,0-.127.456.757.757,0,0,0,.211.567.8.8,0,0,0,.586.207h8.476Zm13.22.4a6.873,6.873,0,0,0,4.628-1.393,4.761,4.761,0,0,0,1.61-3.8,5.726,5.726,0,0,0-.543-2.562,4.966,4.966,0,0,0-1.9-1.951,16.516,16.516,0,0,0-3.814-1.607,6.885,6.885,0,0,1-1.415-.593,1.826,1.826,0,0,1-.686-.645,1.519,1.519,0,0,1-.187-.738,1.181,1.181,0,0,1,.424-.946,1.893,1.893,0,0,1,1.254-.361,3.553,3.553,0,0,1,2.178.774,10.791,10.791,0,0,1,2.263,2.647,2.333,2.333,0,0,0,.645.576.829.829,0,0,0,.609.111.6.6,0,0,0,.441-.472,2.863,2.863,0,0,0-.033-1.058l-.441-3.163a1.329,1.329,0,0,0-.255-.705.631.631,0,0,0-.491-.206,1.674,1.674,0,0,0-.678.189c-.271.126-.541.255-.8.387a1.555,1.555,0,0,1-.6.2,1.281,1.281,0,0,1-.55-.207,5.426,5.426,0,0,0-1.025-.412,5.848,5.848,0,0,0-1.712-.207,7.5,7.5,0,0,0-3.144.636,5.226,5.226,0,0,0-2.2,1.814,4.864,4.864,0,0,0-.8,2.81,5.115,5.115,0,0,0,.6,2.527,5.167,5.167,0,0,0,1.84,1.856,11.05,11.05,0,0,0,3.119,1.255,9.8,9.8,0,0,1,1.872.661,2.214,2.214,0,0,1,.9.731,1.621,1.621,0,0,1,.246.876,1.4,1.4,0,0,1-.424,1.049,1.781,1.781,0,0,1-1.288.412,3.554,3.554,0,0,1-1.552-.352,5.12,5.12,0,0,1-1.517-1.213,18.426,18.426,0,0,1-1.745-2.355,1.592,1.592,0,0,0-.653-.551.874.874,0,0,0-.737.018.754.754,0,0,0-.458.584,2.488,2.488,0,0,0,.051,1.1l.525,3.422a1.2,1.2,0,0,0,.339.686.762.762,0,0,0,.475.173,1.755,1.755,0,0,0,.7-.189l.831-.378a1.278,1.278,0,0,1,1.338,0,7.81,7.81,0,0,0,1.085.378,6.34,6.34,0,0,0,1.687.189Z" transform="translate(1.28)" fill="#333d4b"/>
    <path id="Path_1695" data-name="Path 1695" d="M24.008,11.753c3.006,3.006,2.482,8.424-1.171,12.078a10.433,10.433,0,0,1-6.226,3.084c-.3.03-.6.046-.89.046A6.877,6.877,0,0,1,10.76,25a7.042,7.042,0,0,1-1.913-5.85,10.423,10.423,0,0,1,3.083-6.225c3.656-3.652,9.073-4.18,12.078-1.17Zm-.187.187a24.028,24.028,0,0,1-2.965,3.591,11.2,11.2,0,0,1-4.327,1.924c-3.472,1.009-5.188,3.943-5.584,7.358A21.866,21.866,0,0,1,14.194,21a10.633,10.633,0,0,1,3.9-1.662c3.547-.973,5.309-3.932,5.722-7.4ZM15.03,5.123A11,11,0,0,1,17.281,8.4a11.805,11.805,0,0,0-4.94,2.128,7.457,7.457,0,0,0-1.91-.874A11.2,11.2,0,0,1,6.1,7.73,24.342,24.342,0,0,1,3.138,4.138c.412,3.469,2.175,6.429,5.722,7.4.6.163,1.173.333,1.733.531A12.068,12.068,0,0,0,7.4,18.281a11.031,11.031,0,0,1-3.28-2.251C.472,12.377-.055,6.959,2.952,3.953s8.422-2.484,12.076,1.17Z" transform="translate(0 0.04)" fill="#0e8784"/>
  </g>
</svg>
