<svg xmlns="http://www.w3.org/2000/svg" width="139.751" height="26" viewBox="0 0 139.751 26">
  <g id="devlinks" transform="translate(-3.334 -3.334)">
    <path id="Path_1698" data-name="Path 1698" d="M5.237,27.429c1.906,1.9,4.969,1.9,11.1,1.9s9.192,0,11.1-1.9,1.9-4.967,1.9-11.1,0-9.192-1.9-11.1-4.967-1.9-11.1-1.9-9.192,0-11.1,1.9-1.9,4.969-1.9,11.1,0,9.192,1.9,11.1Zm7.847-15.321a4.225,4.225,0,1,0,4.225,4.225.975.975,0,0,1,1.95,0,6.175,6.175,0,1,1-6.175-6.175.975.975,0,1,1,0,1.95Zm10.725,4.225a4.225,4.225,0,0,1-4.225,4.225.975.975,0,0,0,0,1.95,6.175,6.175,0,1,0-6.175-6.175.975.975,0,1,0,1.95,0,4.225,4.225,0,0,1,8.451,0Z" fill="#fff" fill-rule="evenodd"/>
    <path id="Path_1699" data-name="Path 1699" d="M58.223,26.452V23.367l.27.055a3.561,3.561,0,0,1-1.62,2.4,5.527,5.527,0,0,1-3.187.9,6.11,6.11,0,0,1-3.3-.874,5.932,5.932,0,0,1-2.133-2.512,8.843,8.843,0,0,1-.757-3.795,8.842,8.842,0,0,1,.783-3.849,6.022,6.022,0,0,1,2.188-2.539,6.106,6.106,0,0,1,3.323-.9,5.113,5.113,0,0,1,3.186.928,3.638,3.638,0,0,1,1.459,2.539l-.3.027V6.8h4.051V26.452h-3.97Zm-3.241-3a2.953,2.953,0,0,0,2.323-1.01,4.392,4.392,0,0,0,.892-2.948,4.2,4.2,0,0,0-.919-2.921,3.149,3.149,0,0,0-4.672,0,4.392,4.392,0,0,0-.892,2.948,4.278,4.278,0,0,0,.892,2.921A3.065,3.065,0,0,0,54.982,23.449Zm16.933,3.276a8.428,8.428,0,0,1-4-.9,6.688,6.688,0,0,1-2.647-2.566,7.572,7.572,0,0,1-.919-3.767,7.477,7.477,0,0,1,.919-3.767,6.548,6.548,0,0,1,2.619-2.539,7.9,7.9,0,0,1,3.89-.928,7.475,7.475,0,0,1,3.7.874,6.154,6.154,0,0,1,2.431,2.43,7.412,7.412,0,0,1,.864,3.658q0,.436-.027.819-.027.355-.081.683H66.73v-2.7H75.4l-.7.491a3.342,3.342,0,0,0-.811-2.484,2.846,2.846,0,0,0-2.161-.819A3.03,3.03,0,0,0,69.241,16.3a5.214,5.214,0,0,0-.864,3.276,4.877,4.877,0,0,0,.864,3.167,3.3,3.3,0,0,0,2.647,1.037,3.932,3.932,0,0,0,1.675-.328,2.153,2.153,0,0,0,1.053-1.065h3.809A6.231,6.231,0,0,1,76.1,25.579a7.086,7.086,0,0,1-4.186,1.147ZM84.3,26.452,78.872,12.529H83.22l4.241,12.995h-2.27l4.214-12.995h4.24L88.217,26.452H84.3Zm10.912,0V6.8h4.051V26.452Zm7.28,0V12.529h4.051V26.452Zm-.135-15.78V6.25h4.321v4.423h-4.321Zm7.415,15.78V12.529h3.97v3.276h.081V26.452h-4.051Zm9.589,0V17.825a2.286,2.286,0,0,0-.594-1.72,2.256,2.256,0,0,0-1.675-.573,3.34,3.34,0,0,0-1.7.437,3.212,3.212,0,0,0-1.161,1.2,3.787,3.787,0,0,0-.406,1.8l-.351-3.358a5.683,5.683,0,0,1,1.972-2.43,5.5,5.5,0,0,1,3.241-.928,4.553,4.553,0,0,1,3.512,1.31,4.834,4.834,0,0,1,1.215,3.467v9.419Zm7.135,0V6.8h4.051V26.452Zm8.832,0L129.6,19.218l5.591-6.689h4.672L133.3,19.846l.189-1.283,6.645,7.89Z" transform="translate(-9.716 -0.641)" fill="#fff"/>
    <path id="Path_1700" data-name="Path 1700" d="M172.839,28.419a8.34,8.34,0,0,1-4.807-1.229,4.315,4.315,0,0,1-1.945-3.385h3.62a1.925,1.925,0,0,0,.918,1.42,4.462,4.462,0,0,0,2.214.464,3.6,3.6,0,0,0,1.837-.355,1.2,1.2,0,0,0,.594-1.065.943.943,0,0,0-.351-.792,2.683,2.683,0,0,0-1.215-.491l-2.215-.464a7.849,7.849,0,0,1-3.619-1.556,3.537,3.537,0,0,1-1.161-2.73,3.658,3.658,0,0,1,1.54-3.14,7.064,7.064,0,0,1,4.295-1.147,7.528,7.528,0,0,1,4.349,1.119,3.9,3.9,0,0,1,1.782,3.058h-3.619a1.4,1.4,0,0,0-.757-1.065,3.64,3.64,0,0,0-1.836-.382,3.186,3.186,0,0,0-1.621.328.956.956,0,0,0-.513.874.923.923,0,0,0,.432.792,4.757,4.757,0,0,0,1.431.491l2.485.519a5.529,5.529,0,0,1,3.133,1.638,3.974,3.974,0,0,1,1.08,2.785A3.713,3.713,0,0,1,177.3,27.3,7.585,7.585,0,0,1,172.839,28.419Z" transform="translate(-35.804 -2.335)" fill="#fff"/>
  </g>
</svg>
