<svg xmlns="http://www.w3.org/2000/svg" width="156" height="26" viewBox="0 0 156 26">
  <g id="kanban" transform="translate(0 -0.776)">
    <path id="Path_1691" data-name="Path 1691" d="M44.669,25.745V20.237l1.964-2.177,4.549,7.685h5.564L50.3,14.992l6.48-7.257H50.724l-6.055,6.5V.776H39.76V25.745h4.909Zm19.8.4a7.163,7.163,0,0,0,5.367-2.078v1.682h4.582V13.871a6.071,6.071,0,0,0-.965-3.414,6.477,6.477,0,0,0-2.7-2.292,9.2,9.2,0,0,0-3.993-.825A9.331,9.331,0,0,0,61.77,8.659a6.7,6.7,0,0,0-2.929,3.562l3.927,1.88a4.163,4.163,0,0,1,1.456-1.913,3.816,3.816,0,0,1,2.307-.726,3.217,3.217,0,0,1,2.176.693,2.177,2.177,0,0,1,.8,1.715v.495l-4.942.792a8.949,8.949,0,0,0-4.778,2.012,4.951,4.951,0,0,0-1.571,3.76A4.684,4.684,0,0,0,59.9,24.756a6.977,6.977,0,0,0,4.566,1.385Zm.982-3.628a2.513,2.513,0,0,1-1.538-.462,1.513,1.513,0,0,1-.622-1.286,1.7,1.7,0,0,1,.556-1.369,3.39,3.39,0,0,1,1.6-.676l4.058-.726v.561a3.879,3.879,0,0,1-4.058,3.958Zm17.477,3.232V15.223a3.416,3.416,0,0,1,.916-2.49,3.423,3.423,0,0,1,4.713,0,3.416,3.416,0,0,1,.916,2.49V25.745h4.909V14.168a7.253,7.253,0,0,0-.851-3.579A6.077,6.077,0,0,0,91.16,8.2a7.11,7.11,0,0,0-3.551-.858,6.744,6.744,0,0,0-3.011.643,4.383,4.383,0,0,0-2,1.963V7.736H78.02v18.01h4.909Zm24.71.4a8.826,8.826,0,0,0,4.68-1.253,9.068,9.068,0,0,0,3.256-3.4,9.59,9.59,0,0,0,1.195-4.75,9.466,9.466,0,0,0-1.211-4.766,9.231,9.231,0,0,0-3.273-3.381,8.715,8.715,0,0,0-4.615-1.253,6.914,6.914,0,0,0-5.138,1.913V.776H97.624V25.745h4.582V24.03a6.205,6.205,0,0,0,2.373,1.567,8.5,8.5,0,0,0,3.06.544Zm-.589-4.453a4.225,4.225,0,0,1-3.256-1.369,5.078,5.078,0,0,1-1.26-3.579,5.087,5.087,0,0,1,1.26-3.562,4.2,4.2,0,0,1,3.256-1.385,4.366,4.366,0,0,1,3.338,1.4A4.992,4.992,0,0,1,111.7,16.74a4.978,4.978,0,0,1-1.309,3.562A4.391,4.391,0,0,1,107.05,21.688Zm18.132,4.453a7.163,7.163,0,0,0,5.367-2.078v1.682h4.582V13.871a6.071,6.071,0,0,0-.965-3.414,6.477,6.477,0,0,0-2.7-2.292,9.2,9.2,0,0,0-3.993-.825,9.331,9.331,0,0,0-4.991,1.319,6.7,6.7,0,0,0-2.929,3.562l3.927,1.88a4.163,4.163,0,0,1,1.456-1.913,3.816,3.816,0,0,1,2.307-.726,3.217,3.217,0,0,1,2.176.693,2.177,2.177,0,0,1,.8,1.715v.495l-4.942.792a8.949,8.949,0,0,0-4.778,2.012,4.951,4.951,0,0,0-1.571,3.76,4.684,4.684,0,0,0,1.686,3.826,6.977,6.977,0,0,0,4.566,1.385Zm.982-3.628a2.513,2.513,0,0,1-1.538-.462A1.513,1.513,0,0,1,124,20.765a1.7,1.7,0,0,1,.556-1.369,3.39,3.39,0,0,1,1.6-.676l4.058-.726v.561a3.879,3.879,0,0,1-4.058,3.958Zm17.477,3.232V15.223a3.416,3.416,0,0,1,.916-2.49,3.424,3.424,0,0,1,4.713,0,3.416,3.416,0,0,1,.916,2.49V25.745h4.909V14.168a7.253,7.253,0,0,0-.851-3.579A6.077,6.077,0,0,0,151.871,8.2a7.11,7.11,0,0,0-3.551-.858,6.744,6.744,0,0,0-3.011.643,4.383,4.383,0,0,0-2,1.963V7.736h-4.582v18.01Z" transform="translate(0.905)" fill="#fff"/>
    <g id="Group_118" data-name="Group 118" transform="translate(0 1.007)">
      <rect id="Rectangle_380" data-name="Rectangle 380" width="6.137" height="25.769" rx="2" fill="#635fc7"/>
      <rect id="Rectangle_381" data-name="Rectangle 381" width="6.137" height="25.769" rx="2" transform="translate(9.205)" fill="#635fc7" opacity="0.75"/>
      <rect id="Rectangle_382" data-name="Rectangle 382" width="6.137" height="25.769" rx="2" transform="translate(18.41)" fill="#635fc7" opacity="0.5"/>
    </g>
  </g>
</svg>
