<svg xmlns="http://www.w3.org/2000/svg" width="58.334" height="26" viewBox="0 0 58.334 26">
  <g id="tictactoe" transform="translate(-0.755)">
    <path id="Path_1696" data-name="Path 1696" d="M7.15,1.475l6.093,6.094,6.093-6.094a2.457,2.457,0,0,1,3.476,0l2.2,2.2a2.457,2.457,0,0,1,0,3.476l-6.094,6.093,6.094,6.093a2.457,2.457,0,0,1,0,3.476l-2.2,2.2a2.457,2.457,0,0,1-3.476,0l-6.093-6.094L7.15,25.01a2.457,2.457,0,0,1-3.476,0l-2.2-2.2a2.457,2.457,0,0,1,0-3.476l6.094-6.092L1.475,7.15a2.457,2.457,0,0,1,0-3.476l2.2-2.2a2.457,2.457,0,0,1,3.476,0Z" transform="translate(0 -0.137)" fill="#31c3bd" fill-rule="evenodd"/>
    <path id="Path_1697" data-name="Path 1697" d="M53.23,0a13,13,0,1,1-13,13A13,13,0,0,1,53.23,0Zm0,7.7a5.3,5.3,0,1,0,5.3,5.3,5.3,5.3,0,0,0-5.3-5.3Z" transform="translate(-7.14)" fill="#f2b137"/>
  </g>
</svg>
