<svg xmlns="http://www.w3.org/2000/svg" width="64" height="64" viewBox="0 0 64 64">
  <g id="adobe_xd" transform="translate(-2 -2)">
    <path id="Path_54" data-name="Path 54" d="M2,25.162C2,17.054,2,13,3.578,9.9A14.476,14.476,0,0,1,9.9,3.578C13,2,17.054,2,25.162,2H42.838C50.946,2,55,2,58.1,3.578A14.476,14.476,0,0,1,64.422,9.9C66,13,66,17.054,66,25.162V42.838C66,50.946,66,55,64.422,58.1A14.476,14.476,0,0,1,58.1,64.422C55,66,50.946,66,42.838,66H25.162C17.054,66,13,66,9.9,64.422A14.476,14.476,0,0,1,3.578,58.1C2,55,2,50.946,2,42.838Z" transform="translate(0 0)" fill="#470137"/>
    <g id="Group_58" data-name="Group 58" transform="translate(11.143 18)">
      <path id="Path_55" data-name="Path 55" d="M30.335,10.483,22.349,24l8.544,14.355c.178.325,0,.4-.257.4h-6.1c-.429,0-.73-.016-.9-.309q-.86-1.717-1.717-3.413T20.1,31.576q-.966-1.761-1.911-3.567c-.573,1.174-1.21,2.349-1.825,3.523s-1.224,2.341-1.825,3.5-1.216,2.312-1.846,3.457c-.115.264-.315.291-.6.291H6.206c-.231,0-.259-.174-.129-.379l8.286-13.959-8.071-14a.237.237,0,0,1,.215-.4H12.56a.694.694,0,0,1,.644.308q.773,1.762,1.717,3.523t1.911,3.479c.644,1.145,1.281,2.3,1.825,3.479q.858-1.805,1.739-3.523t1.8-3.457q.923-1.739,1.782-3.457a.454.454,0,0,1,.515-.352H30.12c.215,0,.3.293.215.44Z" transform="translate(-6 -7.663)" fill="#ff61f6"/>
      <path id="Path_56" data-name="Path 56" d="M28.34,40.663c-3.786.059-7.752-1.5-9.746-4.954a12.145,12.145,0,0,1-1.46-6.231,11.729,11.729,0,0,1,1.46-5.768c2.509-4.485,7.564-6.165,12.365-5.724V9.311c0-.205.086-.308.258-.308h5.41a.233.233,0,0,1,.258.264V35.291c0,1.074.107,2.144.172,3.214a.466.466,0,0,1-.258.44,21.781,21.781,0,0,1-8.458,1.717Zm2.619-5.46V23.181a6.13,6.13,0,0,0-7.728,6.033A5.887,5.887,0,0,0,30.959,35.2Z" transform="translate(8.316 -9)" fill="#ff61f6"/>
    </g>
  </g>
</svg>
