<svg xmlns="http://www.w3.org/2000/svg" width="64" height="63.999" viewBox="0 0 64 63.999">
  <path id="git" d="M62.794,29.149,34.85,1.208a4.121,4.121,0,0,0-5.828,0l-5.8,5.8,7.361,7.361a4.895,4.895,0,0,1,6.2,6.24L43.873,27.7a4.9,4.9,0,1,1-2.937,2.765L34.32,23.854V41.264a4.955,4.955,0,0,1,1.3.928,4.9,4.9,0,1,1-5.33-1.07V23.549a4.844,4.844,0,0,1-1.605-1.07,4.9,4.9,0,0,1-1.057-5.361L20.369,9.861,1.208,29.02a4.123,4.123,0,0,0,0,5.831L29.152,62.792a4.122,4.122,0,0,0,5.829,0L62.794,34.98a4.125,4.125,0,0,0,0-5.831" transform="translate(-0.001 0)" fill="#de4c36"/>
</svg>
