<svg id="github" xmlns="http://www.w3.org/2000/svg" width="64" height="64" viewBox="0 0 64 64">
  <path id="Path_23" data-name="Path 23" d="M0,0H64V64H0Z" transform="translate(64 64) rotate(180)" fill="#fff" opacity="0"/>
  <path id="Path_24" data-name="Path 24" d="M32,1C15.061.824,1.186,14.818,1,32.267a31.237,31.237,0,0,0,21.193,29.7c1.55.29,2.114-.668,2.114-1.51V55.143c-8.624,1.887-10.455-4.18-10.455-4.18a8.274,8.274,0,0,0-3.438-4.587c-2.818-1.916.225-1.887.225-1.887a6.5,6.5,0,0,1,4.735,3.222,6.575,6.575,0,0,0,9.018,2.584,6.845,6.845,0,0,1,1.973-4.18c-6.876-.784-14.091-3.455-14.091-15.444A12.255,12.255,0,0,1,15.4,22.222a11.279,11.279,0,0,1,.31-8.245s2.621-.842,8.455,3.193a29.248,29.248,0,0,1,15.5,0c5.918-4.035,8.455-3.193,8.455-3.193a11.279,11.279,0,0,1,.31,8.245,12.241,12.241,0,0,1,3.3,8.39c0,12.019-7.271,14.66-14.091,15.444a7.381,7.381,0,0,1,2.114,5.806v8.564s.564,1.829,2.114,1.51A31.268,31.268,0,0,0,63,32.267C62.814,14.818,48.939.824,32,1" transform="translate(0 0)" fill="#231f20"/>
</svg>
