<svg xmlns="http://www.w3.org/2000/svg" width="64" height="64" viewBox="0 0 64 64">
  <path id="ionic" d="M61.124,18.737l-.275-.613-.451.5a10.038,10.038,0,0,1-4.013,2.763l-.424.163.176.413A26.155,26.155,0,1,1,43.2,8.374l.413.2.176-.413a10.045,10.045,0,0,1,2.949-3.875l.525-.424-.6-.312A32,32,0,1,0,61.126,18.74ZM32,17.412A14.587,14.587,0,1,0,46.585,32,14.6,14.6,0,0,0,32,17.412ZM59.585,12.06a6.651,6.651,0,1,1-6.651-6.651A6.651,6.651,0,0,1,59.585,12.06Z" transform="translate(-0.001 -0.001)" fill="#4586f7"/>
</svg>
