<svg xmlns="http://www.w3.org/2000/svg" xmlns:xlink="http://www.w3.org/1999/xlink" width="64" height="64" viewBox="0 0 64 64">
  <defs>
    <clipPath id="clip-path">
      <rect id="Rectangle_13" data-name="Rectangle 13" width="64" height="64" rx="4" transform="translate(850 1204)" fill="#fff"/>
    </clipPath>
  </defs>
  <g id="mongo_db" transform="translate(-850 -1204)" clip-path="url(#clip-path)">
    <g id="mongodb-original" transform="translate(867.143 1204)" opacity="0.77">
      <path id="Path_30" data-name="Path 30" d="M77.1,42.812a30,30,0,0,1,1.648,7.5,32.989,32.989,0,0,1-.54,9.519,2.192,2.192,0,0,1-.086.252,4.254,4.254,0,0,0-.634.006c-1.747.274-3.492.559-5.237.842-1.8.292-3.61.573-5.411.885-.638.11-1.428-.022-1.685.861-.007.024-.081.028-.123.042l.087-5.274q-.045-6.362-.089-12.725l.841-.144c1.375-.225,2.749-.453,4.125-.672q2.463-.391,4.928-.769c.725-.113,1.45-.216,2.176-.324Z" transform="translate(-50.111 -21.929)" fill="#439934" fill-rule="evenodd"/>
      <path id="Path_31" data-name="Path 31" d="M49.781,77.264c-.887-.762-1.8-1.491-2.654-2.293A32.838,32.838,0,0,1,37.56,59.458a25.1,25.1,0,0,1-.854-5.138,29.019,29.019,0,0,1-.081-3.66,43,43,0,0,1,1.641-9.522l.052-.072a1.533,1.533,0,0,1,.271.368q1.384,4.077,2.75,8.16,4.3,12.829,8.592,25.658a2.044,2.044,0,0,0,.306.454Z" transform="translate(-36.592 -21.099)" fill="#45a538" fill-rule="evenodd"/>
      <path id="Path_32" data-name="Path 32" d="M76.613,24.516c-.726.108-1.452.211-2.177.323q-2.464.382-4.928.769c-1.376.219-2.75.447-4.125.672l-.841.144-.006-.548c-.028-.451-.076-.9-.081-1.352-.036-2.874-.059-5.749-.094-8.623q-.033-2.7-.092-5.4c-.023-1.118-.047-2.236-.1-3.352-.027-.6-.124-1.2-.163-1.8-.022-.345.008-.692.015-1.038.429.831.848,1.667,1.289,2.492a15.932,15.932,0,0,0,2.8,3.311,36.932,36.932,0,0,1,8.5,14.394Z" transform="translate(-49.62 -3.633)" fill="#46a037" fill-rule="evenodd"/>
      <path id="Path_33" data-name="Path 33" d="M64.693,78.356c.043-.014.116-.018.123-.042.258-.883,1.047-.751,1.685-.861,1.8-.312,3.607-.593,5.411-.885,1.745-.283,3.49-.567,5.237-.842a4.186,4.186,0,0,1,.634-.006c-.326,1.165-.583,2.355-1,3.488a38.909,38.909,0,0,1-1.643,3.768A25.785,25.785,0,0,1,71.81,88.1a47.2,47.2,0,0,1-3.254,3.436c-.622.611-1.355,1.109-2.037,1.659l-.177-.121-.637-.545-.659-1.444a21.723,21.723,0,0,1-.731-5.162l.012-.294.09-1.273c.03-.434.07-.868.088-1.3.068-1.565.126-3.129.188-4.694Z" transform="translate(-49.769 -37.566)" fill="#409433" fill-rule="evenodd"/>
      <path id="Path_34" data-name="Path 34" d="M54.635,53.409c-.062,1.565-.121,3.129-.187,4.694-.018.435-.058.869-.088,1.3l-.4.152c-.891-2.625-1.783-5.221-2.656-7.825-1.443-4.307-2.869-8.621-4.309-12.93q-1.745-5.217-3.515-10.424a1.769,1.769,0,0,0-.324-.433l2.569-4.723a2.755,2.755,0,0,1,.26.461q1.783,5.276,3.551,10.556,2.3,6.871,4.58,13.746a5.538,5.538,0,0,0,.258.557l.352-.409q-.044,2.637-.088,5.274Z" transform="translate(-39.711 -12.619)" fill="#4faa41" fill-rule="evenodd"/>
      <path id="Path_35" data-name="Path 35" d="M41.6,32.227a1.782,1.782,0,0,1,.324.433q1.769,5.209,3.515,10.424c1.441,4.308,2.866,8.622,4.309,12.93.872,2.6,1.764,5.2,2.656,7.825l.4-.152-.09,1.273-.081.293c-.14,1.394-.257,2.79-.427,4.181-.086.7-.267,1.381-.405,2.071a2.063,2.063,0,0,1-.306-.454q-4.3-12.827-8.592-25.658-1.367-4.082-2.75-8.16a1.519,1.519,0,0,0-.271-.368q.858-2.319,1.717-4.638Z" transform="translate(-38.156 -16.898)" fill="#4aa73c" fill-rule="evenodd"/>
      <path id="Path_36" data-name="Path 36" d="M57.049,44.35l-.352.409a5.593,5.593,0,0,1-.258-.557q-2.293-6.872-4.58-13.746Q50.1,25.174,48.309,19.9a2.664,2.664,0,0,0-.26-.461l3.177-4.179a1.712,1.712,0,0,1,.295.4q1.323,3.873,2.625,7.754c.812,2.416,1.611,4.835,2.432,7.248.055.162.247.276.375.412l.006.548Q57.005,37.987,57.049,44.35Z" transform="translate(-42.038 -8.834)" fill="#57ae47" fill-rule="evenodd"/>
      <path id="Path_37" data-name="Path 37" d="M59.833,25.255c-.128-.136-.32-.251-.375-.412-.821-2.413-1.621-4.832-2.432-7.248q-1.3-3.88-2.625-7.754a1.712,1.712,0,0,0-.295-.4c1.033-1.012,2.034-2.059,3.109-3.024a4.307,4.307,0,0,0,1.759-3.131,1.664,1.664,0,0,1,.076-.27l.272.685c-.007.347-.038.694-.015,1.038.039.6.136,1.2.163,1.8.05,1.116.075,2.234.1,3.352q.054,2.7.092,5.4c.035,2.874.058,5.749.094,8.623,0,.452.051.9.08,1.352Z" transform="translate(-44.916 -3.012)" fill="#60b24f" fill-rule="evenodd"/>
      <path id="Path_38" data-name="Path 38" d="M62.184,101.417c.138-.69.32-1.375.405-2.071.171-1.39.288-2.787.427-4.181l.035-.005.035.006a21.724,21.724,0,0,0,.731,5.162,1.578,1.578,0,0,0-.272.368c-.381,1.076-.741,2.16-1.124,3.235a1.6,1.6,0,0,1-.3.39l-.392-1.346Z" transform="translate(-48.539 -46.81)" fill="#a9aa88" fill-rule="evenodd"/>
      <path id="Path_39" data-name="Path 39" d="M62.476,109a1.591,1.591,0,0,0,.3-.39c.384-1.076.743-2.159,1.124-3.235a1.564,1.564,0,0,1,.272-.368l.659,1.445a2.566,2.566,0,0,0-.382.557l-1.261,3.7c-.052.148-.229.253-.348.379Z" transform="translate(-48.895 -51.492)" fill="#b6b598" fill-rule="evenodd"/>
      <path id="Path_40" data-name="Path 40" d="M63.171,112.4c.119-.125.3-.23.348-.379l1.261-3.7a2.56,2.56,0,0,1,.382-.557l.638.544a1.12,1.12,0,0,0-.376,1.1l-.194.634a1.307,1.307,0,0,0-.259.327c-.44,1.261-.86,2.529-1.3,3.789a1.744,1.744,0,0,1-.322.426q-.086-1.092-.174-2.182Z" transform="translate(-49.225 -52.8)" fill="#c2c1a7" fill-rule="evenodd"/>
      <path id="Path_41" data-name="Path 41" d="M63.5,116.648a1.792,1.792,0,0,0,.322-.426c.443-1.26.864-2.528,1.3-3.789a1.3,1.3,0,0,1,.259-.327l-.267,2.909c-.071.082-.175.154-.209.25-.3.847-.586,1.7-.889,2.547a3.255,3.255,0,0,1-.275.492c-.083-.109-.231-.214-.238-.327C63.476,117.536,63.495,117.091,63.5,116.648Z" transform="translate(-49.376 -54.864)" fill="#cecdb7" fill-rule="evenodd"/>
      <path id="Path_42" data-name="Path 42" d="M63.969,120.939a3.3,3.3,0,0,0,.275-.492c.3-.846.587-1.7.889-2.547.034-.1.138-.167.209-.25l.006,1.91-.639,1.639Z" transform="translate(-49.604 -57.5)" fill="#dbdac7" fill-rule="evenodd"/>
      <path id="Path_43" data-name="Path 43" d="M65.38,122.93l.639-1.639.132,1.939Z" transform="translate(-50.275 -59.23)" fill="#ebe9dc" fill-rule="evenodd"/>
      <path id="Path_44" data-name="Path 44" d="M67.437,109.9a1.118,1.118,0,0,1,.376-1.1l.177.121Z" transform="translate(-51.238 -53.294)" fill="#cecdb7" fill-rule="evenodd"/>
      <path id="Path_45" data-name="Path 45" d="M64.253,94.906l-.035-.006-.035.005.081-.293Z" transform="translate(-49.707 -46.55)" fill="#4faa41" fill-rule="evenodd"/>
    </g>
  </g>
</svg>
