<svg xmlns="http://www.w3.org/2000/svg" width="64" height="63.997" viewBox="0 0 64 63.997">
  <path id="next_js" d="M47.5,60c-.238.126-.218.166.01.05a.62.62,0,0,0,.19-.122c0-.042,0-.042-.2.072Zm.48-.26c-.114.094-.114.094.022.032a.5.5,0,0,0,.136-.094C48.134,59.628,48.1,59.64,47.976,59.744Zm.312-.188c-.114.094-.114.094.022.032a.492.492,0,0,0,.136-.1C48.446,59.442,48.414,59.452,48.288,59.556Zm.316-.186c-.114.094-.114.094.018.03a.425.425,0,0,0,.136-.094c0-.05-.032-.04-.154.064Zm.426-.282c-.218.146-.294.24-.094.136.134-.082.362-.262.322-.262a1.67,1.67,0,0,0-.23.126ZM29.905.018c-.146.01-.584.05-.968.082a32.074,32.074,0,0,0-23,13.262A31.655,31.655,0,0,0,.29,27.339,24.406,24.406,0,0,0,0,32.005a24.306,24.306,0,0,0,.29,4.656A32.133,32.133,0,0,0,22.175,62.514a34.744,34.744,0,0,0,6.762,1.408,60.1,60.1,0,0,0,6.122,0,32.4,32.4,0,0,0,11.534-3.376c.552-.28.656-.354.582-.416-1.76-2.322-3.488-4.646-5.218-6.99l-5.114-6.906-6.406-9.49q-3.2-4.764-6.458-9.488c-.022,0-.05,4.218-.062,9.362-.022,9.01-.022,9.376-.136,9.584a1.143,1.143,0,0,1-.552.574c-.2.094-.376.114-1.322.114H20.825l-.282-.176a1.19,1.19,0,0,1-.416-.458l-.136-.282L20,33.433l.022-12.542.2-.25a1.507,1.507,0,0,1,.458-.374c.262-.126.366-.146,1.448-.146,1.27,0,1.48.05,1.814.416,2.592,3.864,5.176,7.738,7.718,11.624,4.158,6.3,9.834,14.906,12.624,19.125l5.074,7.678.25-.166a32.692,32.692,0,0,0,6.57-5.77A31.868,31.868,0,0,0,63.71,36.675,24.418,24.418,0,0,0,64,32.009a24.294,24.294,0,0,0-.29-4.656A32.138,32.138,0,0,0,41.825,1.5,33.965,33.965,0,0,0,35.169.1c-.606-.062-4.742-.136-5.262-.082ZM43,19.372a1.245,1.245,0,0,1,.634.728c.054.168.064,3.646.054,11.48l-.022,11.248-1.978-3.04L39.7,36.745V28.579c0-5.294.022-8.262.05-8.408a1.338,1.338,0,0,1,.626-.79c.248-.126.344-.136,1.334-.136.926,0,1.082.01,1.29.126Z" transform="translate(0 -0.004)"/>
</svg>
