<svg xmlns="http://www.w3.org/2000/svg" width="56.771" height="64" viewBox="0 0 56.771 64">
  <g id="node_js" transform="translate(-5 -2.58)">
    <path id="Path_25" data-name="Path 25" d="M33.4,66.581a4.927,4.927,0,0,1-2.459-.657l-7.828-4.636c-1.17-.654-.6-.886-.214-1.019a15.744,15.744,0,0,0,3.539-1.615.592.592,0,0,1,.583.042l6.015,3.569a.789.789,0,0,0,.726,0L57.209,48.727a.741.741,0,0,0,.359-.633V21.033a.75.75,0,0,0-.363-.645L33.764,6.862a.724.724,0,0,0-.722,0L9.6,20.387a.746.746,0,0,0-.372.639V48.088a.719.719,0,0,0,.365.627l6.423,3.71c3.487,1.743,5.617-.311,5.617-2.377V23.34a.669.669,0,0,1,.681-.675h2.97a.671.671,0,0,1,.675.675V50.062c0,4.649-2.535,7.321-6.944,7.321-1.357,0-2.425,0-5.407-1.467L7.461,52.37A4.963,4.963,0,0,1,5,48.089V21.027a4.931,4.931,0,0,1,2.459-4.274L30.936,3.21a5.143,5.143,0,0,1,4.932,0L59.314,16.759a4.951,4.951,0,0,1,2.458,4.274V48.1a4.966,4.966,0,0,1-2.459,4.274L35.866,65.911a4.926,4.926,0,0,1-2.471.657" transform="translate(0 0)" fill="#21a366"/>
    <path id="Path_26" data-name="Path 26" d="M28.856,32.937c-6.868,0-8.308-3.153-8.308-5.8A.452.452,0,0,1,21,26.688h2.028a.454.454,0,0,1,.448.384c.306,2.066,1.218,3.108,5.371,3.108,3.308,0,4.715-.747,4.715-2.5,0-1.01-.4-1.76-5.54-2.263-4.3-.424-6.955-1.371-6.955-4.809,0-3.167,2.672-5.053,7.147-5.053,5.026,0,7.517,1.745,7.831,5.493a.456.456,0,0,1-.122.35.467.467,0,0,1-.334.145H33.553a.45.45,0,0,1-.44-.354c-.491-2.173-1.678-2.868-4.9-2.868-3.611,0-4.031,1.257-4.031,2.2,0,1.143.5,1.477,5.367,2.122,4.825.64,7.116,1.544,7.116,4.935,0,3.418-2.853,5.379-7.827,5.379" transform="translate(13.335 10.792)" fill="#21a366"/>
  </g>
</svg>
