<svg xmlns="http://www.w3.org/2000/svg" xmlns:xlink="http://www.w3.org/1999/xlink" width="64" height="64" viewBox="0 0 64 64">
  <defs>
    <clipPath id="clip-path">
      <rect id="Rectangle_12" data-name="Rectangle 12" width="64" height="64" rx="4" transform="translate(752 1263)" fill="#fff"/>
    </clipPath>
  </defs>
  <g id="react_js" transform="translate(-752 -1263)" clip-path="url(#clip-path)">
    <g id="file-type-reactjs" transform="translate(752 1266.429)">
      <circle id="Ellipse_1" data-name="Ellipse 1" cx="5.714" cy="5.714" r="5.714" transform="translate(26.286 22.703)" fill="#00d8ff"/>
      <path id="Path_15" data-name="Path 15" d="M34,36.384a64.88,64.88,0,0,1-20.3-2.743,25.829,25.829,0,0,1-8.359-4.475A8.1,8.1,0,0,1,2,23.282c0-3.778,4.151-7.481,11.1-9.9A65.726,65.726,0,0,1,34,10.3a65.54,65.54,0,0,1,20.622,3.026,26,26,0,0,1,8.087,4.265A7.751,7.751,0,0,1,66,23.282c0,3.927-4.64,7.906-12.114,10.379A65.829,65.829,0,0,1,34,36.384Zm0-23.353a63.881,63.881,0,0,0-20,2.93c-6.4,2.233-9.269,5.287-9.269,7.314,0,2.121,3.083,5.456,9.854,7.771A62.194,62.194,0,0,0,34,33.65a63.085,63.085,0,0,0,19.029-2.583c7.029-2.329,10.229-5.669,10.229-7.785a5.319,5.319,0,0,0-2.309-3.6,23.3,23.3,0,0,0-7.225-3.781A62.771,62.771,0,0,0,34,13.031Z" transform="translate(-2 5.135)" fill="#00d8ff"/>
      <path id="Path_16" data-name="Path 16" d="M14.066,60.459a6.032,6.032,0,0,1-3.054-.75c-3.273-1.888-4.407-7.333-3.033-14.567A65.726,65.726,0,0,1,15.75,25.5,65.545,65.545,0,0,1,28.671,9.149a26,26,0,0,1,7.735-4.875,7.751,7.751,0,0,1,6.578,0c3.4,1.961,4.53,7.968,2.942,15.678a65.842,65.842,0,0,1-7.579,18.59A64.88,64.88,0,0,1,25.83,54.754a25.829,25.829,0,0,1-8.053,5,11.26,11.26,0,0,1-3.712.7Zm4.053-33.6a63.881,63.881,0,0,0-7.451,18.786c-1.264,6.663-.05,10.67,1.714,11.689,1.829,1.058,6.267.055,11.657-4.654a62.192,62.192,0,0,0,11.947-15.52,63.086,63.086,0,0,0,7.271-17.774c1.495-7.257.2-11.7-1.63-12.757a5.319,5.319,0,0,0-4.27.2,23.3,23.3,0,0,0-6.88,4.384A62.775,62.775,0,0,0,18.134,26.873Z" transform="translate(4.951 -3.542)" fill="#00d8ff"/>
      <path id="Path_17" data-name="Path 17" d="M40,60.444c-3.1,0-7.031-1.874-11.127-5.4A65.728,65.728,0,0,1,15.741,38.506,65.545,65.545,0,0,1,8.029,19.144,26,26,0,0,1,7.668,10a7.751,7.751,0,0,1,3.278-5.685c3.4-1.968,9.166.055,15.051,5.28a65.829,65.829,0,0,1,12.32,15.849,64.878,64.878,0,0,1,7.794,18.942,25.828,25.828,0,0,1,.313,9.477A8.1,8.1,0,0,1,43.01,59.7,5.92,5.92,0,0,1,40,60.444ZM18.107,37.13A63.883,63.883,0,0,0,30.66,52.968c5.141,4.423,9.218,5.374,10.971,4.343,1.829-1.063,3.177-5.4,1.787-12.421a62.2,62.2,0,0,0-7.477-18.082,63.086,63.086,0,0,0-11.76-15.177C18.642,6.712,14.148,5.612,12.317,6.673a5.319,5.319,0,0,0-1.954,3.8,23.3,23.3,0,0,0,.35,8.149,62.777,62.777,0,0,0,7.4,18.514Z" transform="translate(4.972 -3.497)" fill="#00d8ff"/>
    </g>
  </g>
</svg>
