<svg id="redux" xmlns="http://www.w3.org/2000/svg" width="64" height="64" viewBox="0 0 64 64">
  <path id="Path_46" data-name="Path 46" d="M0,0H64V64H0Z" fill="none"/>
  <path id="Path_47" data-name="Path 47" d="M44.345,43.412c-4.5,8.709-12.38,14.569-22.8,16.5a20.931,20.931,0,0,1-4.885.54c-6,0-11.5-2.367-14.17-6.243C-1.1,49.04-2.319,38.092,9.5,29.993a38.855,38.855,0,0,0,1.055,3.933A18.406,18.406,0,0,0,5,40.094a10.821,10.821,0,0,0,.65,11.952,11.533,11.533,0,0,0,8.315,4.568,23.06,23.06,0,0,0,13.275-2.367c6.355-3.162,10.59-6.939,13.36-12.1a4.3,4.3,0,0,1-1.3-2.84,4.422,4.422,0,0,1,4.39-4.464h.17a4.476,4.476,0,0,1,4.591,4.094,4.411,4.411,0,0,1-4.091,4.544ZM58.68,33.851c6.1,6.551,6.27,14.262,3.91,18.735-2.2,4.085-8,8.175-15.8,8.175a26.405,26.405,0,0,1-10.5-2.39c1.145-.772,2.77-2.007,3.665-2.778a21.769,21.769,0,0,0,8,1.619A12.054,12.054,0,0,0,59.11,50.891a10.174,10.174,0,0,0,.165-9.1,20.947,20.947,0,0,0-8.635-9.869,32.249,32.249,0,0,0-17.37-5.013H31.806a4.606,4.606,0,0,1-4,2.622h-.155A4.321,4.321,0,1,1,27.5,20.9h.165a4.536,4.536,0,0,1,4,2.315h1.3c10.4,0,19.53,3.777,25.709,10.641ZM17.306,44.738a3.316,3.316,0,0,1,.57-2.239c-4.56-7.479-7-16.96-3.255-26.829C17.306,8.253,24.066,3.24,31.4,3.24c7.82,0,15.965,6.48,16.94,18.967-1.22-.383-3-.947-4.07-1.155C44,16.967,40.355,6.79,31.721,6.942c-3.095.08-7.655,1.467-10,4.317A20.052,20.052,0,0,0,16.9,23.21a27.022,27.022,0,0,0,4.235,17.116,1.446,1.446,0,0,1,.57-.076h.16a4.324,4.324,0,1,1,.165,8.634h-.165a4.474,4.474,0,0,1-4.56-4.161Z" transform="translate(0 0)" fill="#764abc"/>
</svg>
