<svg xmlns="http://www.w3.org/2000/svg" width="64" height="63.934" viewBox="0 0 64 63.934">
  <g id="socket_io" transform="translate(-3.332 -3.45)">
    <path id="Path_48" data-name="Path 48" d="M27.228,4.459a32,32,0,0,1,40.09,30.236A31.982,31.982,0,1,1,27.228,4.459Z" fill="#010101"/>
    <path id="Path_49" data-name="Path 49" d="M39.477,22.8c15.645-6.264,34.835,5.3,36.454,22.077,2.521,15.095-10.007,30.434-25.3,30.877-14.545,1.451-28.6-10.878-29.013-25.484-1.085-11.825,6.707-23.559,17.86-27.47Z" transform="translate(-13.517 -13.103)" fill="#fff"/>
    <g id="Group_4" data-name="Group 4" transform="translate(22.079 16.574)">
      <path id="Path_50" data-name="Path 50" d="M97.637,71.812c7.013-5.729,13.873-11.657,21.038-17.219-3.758,5.775-7.624,11.474-11.382,17.249-3.224.015-6.447.015-9.656-.031Z" transform="translate(-92.183 -54.593)" fill="#010101"/>
      <path id="Path_51" data-name="Path 51" d="M87.766,134.132c3.239,0,6.463,0,9.686.046-7.059,5.7-13.888,11.673-21.069,17.219C80.142,145.621,84.007,139.907,87.766,134.132Z" transform="translate(-76.383 -113.72)" fill="#010101"/>
    </g>
  </g>
</svg>
