<svg xmlns="http://www.w3.org/2000/svg" xmlns:xlink="http://www.w3.org/1999/xlink" width="64" height="64" viewBox="0 0 64 64">
  <defs>
    <clipPath id="clip-path">
      <rect id="Rectangle_14" data-name="Rectangle 14" width="64" height="64" rx="4" transform="translate(1124 1349)" fill="#fff"/>
    </clipPath>
  </defs>
  <g id="sql" transform="translate(-1124 -1349)" clip-path="url(#clip-path)">
    <path id="sql-database-generic" d="M851.08,1007.944c-5.991-.432-11.912-1.94-15.543-3.958a10.432,10.432,0,0,1-4.263-3.823l-.368-.749V952.4l.291-.591c1.3-2.641,5.453-5.023,11.249-6.451a58.69,58.69,0,0,1,7.125-1.212,76.679,76.679,0,0,1,11,.067c6.273.737,11.611,2.387,14.9,4.606a9.706,9.706,0,0,1,3.011,3.167l.378.808-.032,23.433-.032,23.433-.3.617a7.988,7.988,0,0,1-1.12,1.483c-2.735,2.9-8.6,5.045-16.3,5.959-1.569.186-8.383.337-9.993.221Zm11.04-20.14c-.023-.06-.919-.858-1.99-1.773s-1.994-1.707-2.051-1.759.142-.239.44-.414a7.642,7.642,0,0,0,1.27-1.081,7.26,7.26,0,0,0-.066-9.468,5.91,5.91,0,0,0-4.594-1.735,6.161,6.161,0,0,0-6.24,4.741,9.972,9.972,0,0,0,0,3.941,6.177,6.177,0,0,0,4.874,4.425,1.806,1.806,0,0,1,1.428.778c.318.348.972,1.043,1.452,1.544l.873.911h2.321a11.679,11.679,0,0,0,2.279-.109Zm-7.96-6.5a2.1,2.1,0,0,1-1.089-1.165,3.719,3.719,0,0,1-.291-1.968,3.624,3.624,0,0,1,.292-1.983,2.11,2.11,0,0,1,1.9-1.323c1.248-.091,1.968.522,2.345,1.993.463,1.8-.046,3.722-1.156,4.359a2.275,2.275,0,0,1-2,.087Zm-10.288,3.349c2.434-.462,3.815-1.877,3.815-3.909,0-1.8-.892-2.853-3.357-3.953-1.411-.63-1.922-1.025-1.922-1.487,0-.383.485-.8,1.05-.908a7.263,7.263,0,0,1,2.877.5l.724.292v-3.2l-.786-.174a15,15,0,0,0-2.671-.169,5.9,5.9,0,0,0-2.595.287,3.74,3.74,0,0,0-2.662,3.793c.013,1.728.924,2.806,3.193,3.775,1.338.572,1.875,1.008,1.875,1.522,0,1.094-1.823,1.229-3.753.277l-1.055-.521a7.092,7.092,0,0,0-.094,1.663c0,1.7,0,1.711.31,1.828A12.3,12.3,0,0,0,843.871,984.653Zm27.822-1.58v-1.446h-4.4V971.7h-3.9v12.821h8.3Zm-13.575-25.33a37.018,37.018,0,0,0,9.327-1.629c2.544-.851,4.047-1.88,4.383-3a1.3,1.3,0,0,0-.061-1.071c-.812-2.125-5.346-3.758-12.274-4.42a62.581,62.581,0,0,0-11.179.19c-4.312.583-7.811,1.665-9.367,2.9-3.147,2.492.181,5.234,7.921,6.524a52.129,52.129,0,0,0,11.249.511Z" transform="translate(301.094 405.016)" fill="#00bcf2"/>
  </g>
</svg>
