<svg xmlns="http://www.w3.org/2000/svg" xmlns:xlink="http://www.w3.org/1999/xlink" width="64" height="64" viewBox="0 0 64 64">
  <defs>
    <clipPath id="clip-path">
      <rect id="Rectangle_2" data-name="Rectangle 2" width="64" height="64" rx="4" transform="translate(658 1066)" fill="#fff"/>
    </clipPath>
  </defs>
  <g id="typescript" transform="translate(-658 -1066)" clip-path="url(#clip-path)">
    <g id="typescript-2" data-name="typescript" transform="translate(658 1066)">
      <path id="Path_1" data-name="Path 1" d="M1.5,33.41v32h64v-64H1.5Zm51.574-2.56a7.967,7.967,0,0,1,4,2.3A10.537,10.537,0,0,1,58.614,35.2c0,.082-2.765,1.951-4.449,3-.061.041-.307-.225-.579-.63A3.63,3.63,0,0,0,50.58,35.76c-1.94-.133-3.19.886-3.18,2.56a2.345,2.345,0,0,0,.276,1.2c.425.886,1.219,1.413,3.707,2.488,4.582,1.971,6.543,3.272,7.762,5.12a9.292,9.292,0,0,1,.742,7.8C58.864,57.592,56.356,59.4,52.808,60a19.62,19.62,0,0,1-4.874-.051,11.776,11.776,0,0,1-6.513-3.395,11.251,11.251,0,0,1-1.664-2.468,4.783,4.783,0,0,1,.589-.374L42.716,52.4l1.838-1.065.384.568a8.591,8.591,0,0,0,2.427,2.324c2.048,1.075,4.844.927,6.226-.317a2.78,2.78,0,0,0,.353-3.543c-.512-.712-1.536-1.311-4.4-2.56-3.3-1.423-4.726-2.3-6.026-3.707a8.438,8.438,0,0,1-1.756-3.2,12.8,12.8,0,0,1-.113-4.1,7.785,7.785,0,0,1,6.564-6.077,16.21,16.21,0,0,1,4.859.133ZM38.052,33.533v2.621h-8.31v23.67H23.849V36.149h-8.33v-2.56a25.187,25.187,0,0,1,.061-2.647c.041-.046,5.12-.046,11.264-.046H38.021Z" transform="translate(-1.5 -1.41)" fill="#007acc"/>
    </g>
  </g>
</svg>
