<svg xmlns="http://www.w3.org/2000/svg" xmlns:xlink="http://www.w3.org/1999/xlink" width="48" height="48" viewBox="0 0 48 48">
  <defs>
    <clipPath id="clip-path">
      <circle id="Ellipse_140" data-name="Ellipse 140" cx="24" cy="24" r="24" transform="translate(793 6509)" fill="#fff" stroke="#707070" stroke-width="1"/>
    </clipPath>
    <filter id="github" x="-8" y="-8" width="72" height="72" filterUnits="userSpaceOnUse">
      <feOffset dx="4" dy="4" input="SourceAlpha"/>
      <feGaussianBlur stdDeviation="4" result="blur"/>
      <feFlood flood-opacity="0.161"/>
      <feComposite operator="in" in2="blur"/>
      <feComposite in="SourceGraphic"/>
    </filter>
  </defs>
  <g id="github-2" data-name="github" transform="translate(-793 -6509)" clip-path="url(#clip-path)">
    <g transform="matrix(1, 0, 0, 1, 793, 6509)" filter="url(#github)">
      <path id="github-3" data-name="github" d="M25,1C11.886.861,1.144,11.87,1,25.6c.05,10.688,6.676,20.123,16.407,23.362,1.2.228,1.636-.525,1.636-1.188V43.591c-6.676,1.484-8.095-3.288-8.095-3.288a6.5,6.5,0,0,0-2.662-3.608c-2.182-1.507.175-1.484.175-1.484a5.035,5.035,0,0,1,3.665,2.535,5.049,5.049,0,0,0,6.982,2.032,5.421,5.421,0,0,1,1.527-3.288C15.313,35.872,9.727,33.771,9.727,24.34a9.731,9.731,0,0,1,2.422-6.645,9,9,0,0,1,.24-6.486s2.029-.662,6.545,2.512a22.3,22.3,0,0,1,12,0c4.582-3.174,6.545-2.512,6.545-2.512a9,9,0,0,1,.24,6.486,9.714,9.714,0,0,1,2.553,6.6c0,9.454-5.629,11.533-10.909,12.149A5.86,5.86,0,0,1,31,41.011v6.737s.436,1.439,1.636,1.188A24.571,24.571,0,0,0,49,25.6C48.856,11.87,38.114.861,25,1" transform="translate(-1 -1)" fill="#231f20"/>
    </g>
  </g>
</svg>
